<?xml version="1.0" encoding="UTF-8" standalone="no"?>
<svg
   xmlns:dc="http://purl.org/dc/elements/1.1/"
   xmlns:cc="http://creativecommons.org/ns#"
   xmlns:rdf="http://www.w3.org/1999/02/22-rdf-syntax-ns#"
   xmlns:svg="http://www.w3.org/2000/svg"
   xmlns="http://www.w3.org/2000/svg"
   xmlns:sodipodi="http://sodipodi.sourceforge.net/DTD/sodipodi-0.dtd"
   xmlns:inkscape="http://www.inkscape.org/namespaces/inkscape"
   version="1.1"
   id="Layer_1"
   x="0px"
   y="0px"
   viewBox="0 0 392.533 392.533"
   style="enable-background:new 0 0 392.533 392.533;"
   xml:space="preserve"
   sodipodi:docname="cart.svg"
   inkscape:version="1.0 (4035a4fb49, 2020-05-01)"><metadata
   id="metadata51"><rdf:RDF><cc:Work
       rdf:about=""><dc:format>image/svg+xml</dc:format><dc:type
         rdf:resource="http://purl.org/dc/dcmitype/StillImage" /></cc:Work></rdf:RDF></metadata><defs
   id="defs49" /><sodipodi:namedview
   inkscape:document-rotation="0"
   pagecolor="#ffffff"
   bordercolor="#666666"
   borderopacity="1"
   objecttolerance="10"
   gridtolerance="10"
   guidetolerance="10"
   inkscape:pageopacity="0"
   inkscape:pageshadow="2"
   inkscape:window-width="1440"
   inkscape:window-height="855"
   id="namedview47"
   showgrid="false"
   inkscape:zoom="0.82031322"
   inkscape:cx="36.733628"
   inkscape:cy="300.05692"
   inkscape:window-x="-5"
   inkscape:window-y="-5"
   inkscape:window-maximized="1"
   inkscape:current-layer="Layer_1" />





<g
   id="g16">
</g>
<g
   id="g18">
</g>
<g
   id="g20">
</g>
<g
   id="g22">
</g>
<g
   id="g24">
</g>
<g
   id="g26">
</g>
<g
   id="g28">
</g>
<g
   id="g30">
</g>
<g
   id="g32">
</g>
<g
   id="g34">
</g>
<g
   id="g36">
</g>
<g
   id="g38">
</g>
<g
   id="g40">
</g>
<g
   id="g42">
</g>
<g
   id="g44">
</g>
<g
   id="g60"
   transform="matrix(0.98057484,0,0,0.98057484,3.7830101,3.7821051)"><path
     id="path2"
     d="m 115.071,241.162 h 193.552 c 4.461,0 8.404,-2.844 9.826,-7.176 L 370.295,70.301 c 1.875,-8.339 -3.62,-13.123 -9.826,-13.382 H 68.978 Z"
     style="fill:#ffffff" /><path
     id="path4"
     d="m 96.776,78.64 6.853,27.41 h 47.321 c 6.012,0 10.925,4.848 10.925,10.925 0,6.012 -4.848,10.925 -10.925,10.925 h -41.826 l 5.56,22.109 h 19.653 c 6.012,0 10.925,4.848 10.925,10.925 0,6.012 -4.848,10.925 -10.925,10.925 h -14.222 l 11.895,47.709 H 300.22 L 344.826,78.833 H 96.776 Z"
     style="fill:#56ace0" /><path
     id="path6"
     d="m 224,139.408 h -12.347 c -5.172,0 -9.374,-4.202 -9.374,-9.374 0,-5.172 4.202,-9.374 9.374,-9.374 h 31.354 c 5.301,0 9.632,-4.331 9.632,-9.632 0,-5.301 -4.331,-9.632 -9.632,-9.632 H 232.21 v -4.784 c 0,-5.301 -4.331,-9.632 -9.632,-9.632 -5.301,0 -9.632,4.331 -9.632,9.632 v 4.784 h -1.293 c -15.774,0 -28.638,12.8 -28.638,28.638 0,15.774 12.8,28.638 28.638,28.638 H 224 c 5.172,0 9.374,4.202 9.374,9.374 0,5.172 -4.202,9.374 -9.374,9.374 h -31.354 c -5.301,0 -9.632,4.331 -9.632,9.632 0,5.301 4.331,9.632 9.632,9.632 h 20.299 v 4.784 c 0,5.301 4.331,9.632 9.632,9.632 5.301,0 9.632,-4.331 9.632,-9.632 v -6.012 c 11.83,-3.556 20.428,-14.481 20.428,-27.41 0.001,-15.773 -12.799,-28.638 -28.637,-28.638 z"
     style="fill:#194f82" /><g
     id="g12"><path
       id="path8"
       d="m 129.81,370.713 c 8.986,0 16.291,-7.37 16.291,-16.291 0,-8.986 -7.37,-16.291 -16.291,-16.291 -8.921,0 -16.291,7.37 -16.291,16.291 -0.129,8.921 7.241,16.291 16.291,16.291 z"
       style="fill:#ffc10d" /><path
       id="path10"
       d="m 270.61,370.713 c 8.986,0 16.291,-7.37 16.291,-16.291 0,-8.986 -7.37,-16.291 -16.291,-16.291 -8.921,0 -16.291,7.37 -16.291,16.291 -0.064,8.921 7.241,16.291 16.291,16.291 z"
       style="fill:#ffc10d" /></g><path
     id="path14"
     d="m 112.485,262.883 h 196.137 c 13.964,0 26.246,-8.986 30.513,-22.303 L 390.981,76.895 C 397.834,56.79 381.93,35.263 360.468,35.263 H 63.547 L 56.824,8.37 C 55.596,3.586 51.264,0.16 46.222,0.16 H 10.925 C 4.913,0.16 0,5.008 0,10.956 0,16.968 4.848,21.881 10.925,21.881 h 26.893 l 57.018,228.267 -22.174,34.844 c -12.283,18.554 -3.038,47.58 23.079,52.364 -2.521,5.107 -4.008,10.925 -4.008,17.002 0,21.01 17.067,38.077 38.077,38.077 21.01,0 38.012,-17.067 38.012,-38.077 0,-5.883 -1.422,-11.378 -3.685,-16.291 h 72.145 c -2.392,4.978 -3.685,10.408 -3.685,16.291 0,21.01 17.067,38.077 38.077,38.077 21.01,0 38.077,-17.067 38.077,-38.077 0,-5.883 -1.422,-11.378 -3.685,-16.291 h 43.184 c 6.012,0 10.925,-4.848 10.925,-10.925 0,-6.012 -4.848,-10.925 -10.925,-10.925 H 101.818 c -10.343,0 -16.162,-10.796 -10.796,-19.717 z M 370.295,70.366 318.448,234.05 c -1.422,4.267 -5.236,7.176 -9.826,7.176 H 115.071 L 69.042,56.984 h 291.491 c 6.077,0.194 11.572,5.042 9.762,13.382 z M 270.61,338.067 c 8.986,0 16.291,7.37 16.291,16.291 0,8.986 -7.37,16.291 -16.291,16.291 -8.921,0 -16.291,-7.37 -16.291,-16.291 -0.064,-8.986 7.241,-16.291 16.291,-16.291 z m -140.8,0 c 8.986,0 16.291,7.37 16.291,16.291 0,8.986 -7.37,16.291 -16.291,16.291 -8.921,0 -16.291,-7.37 -16.291,-16.291 -0.129,-8.986 7.241,-16.291 16.291,-16.291 z"
     style="fill:#194f82" /></g></svg>
